<svg xmlns="http://www.w3.org/2000/svg" xmlns:xlink="http://www.w3.org/1999/xlink" width="1920" height="2372" viewBox="0 0 1920 2372">
  <defs>
    <clipPath id="clip-Web_1920_2">
      <rect width="1920" height="2372"/>
    </clipPath>
  </defs>
  <g id="Web_1920_2" data-name="Web 1920 – 2" clip-path="url(#clip-Web_1920_2)">
    <rect width="1920" height="2372" fill="#fff"/>
    <g id="Rectangle_2" data-name="Rectangle 2" fill="#fff" stroke="#707070" stroke-width="1">
      <rect width="1920" height="2217" stroke="none"/>
      <rect x="0.5" y="0.5" width="1919" height="2216" fill="none"/>
    </g>
    <line id="Line_3" data-name="Line 3" y1="2216.5" x2="1920" transform="translate(0.5 0.5)" fill="none" stroke="#707070" stroke-width="1"/>
    <line id="Line_4" data-name="Line 4" x1="1920" y1="2216.5" transform="translate(0.5 0.5)" fill="none" stroke="#707070" stroke-width="1"/>
    <g id="Rectangle_1" data-name="Rectangle 1" transform="translate(24 19)" fill="#fff" stroke="#707070" stroke-width="1">
      <rect width="180" height="178" stroke="none"/>
      <rect x="0.5" y="0.5" width="179" height="177" fill="none"/>
    </g>
    <line id="Line_1" data-name="Line 1" x2="180" y2="178" transform="translate(24 19)" fill="none" stroke="#707070" stroke-width="1"/>
    <line id="Line_2" data-name="Line 2" y1="178" x2="180" transform="translate(24.5 19.5)" fill="none" stroke="#707070" stroke-width="1"/>
    <text id="Galactic_Grid" data-name="Galactic Grid" transform="translate(230 124)" fill="#707070" font-size="82" font-family="SegoeUIBlack, Segoe UI"><tspan x="0" y="0">Galactic Grid</tspan></text>
    <text id="Ship_Reviews" data-name="Ship Reviews" transform="translate(236 170)" fill="#707070" font-size="39" font-family="SegoeUIBlack, Segoe UI"><tspan x="0" y="0">Ship Reviews</tspan></text>
    <text id="LOGO" transform="translate(86 117)" fill="#707070" font-size="20" font-family="SegoeUIBlack, Segoe UI"><tspan x="0" y="0">LOGO</tspan></text>
    <g id="Rectangle_3" data-name="Rectangle 3" transform="translate(1092 84)" fill="#fff" stroke="#707070" stroke-width="1">
      <rect width="741" height="38" rx="19" stroke="none"/>
      <rect x="0.5" y="0.5" width="740" height="37" rx="18.5" fill="none"/>
    </g>
    <g id="Rectangle_4" data-name="Rectangle 4" transform="translate(1710 84)" fill="#fff" stroke="#707070" stroke-width="1">
      <rect width="123" height="38" rx="19" stroke="none"/>
      <rect x="0.5" y="0.5" width="122" height="37" rx="18.5" fill="none"/>
    </g>
    <text id="Search" transform="translate(1741 110)" fill="#707070" font-size="20" font-family="SegoeUIBlack, Segoe UI"><tspan x="0" y="0">Search</tspan></text>
    <text id="HERO_IMAGE" data-name="HERO IMAGE" transform="translate(884 383)" fill="#707070" font-size="20" font-family="SegoeUIBlack, Segoe UI"><tspan x="0" y="0">HERO IMAGE</tspan></text>
    <text id="Home" transform="translate(1092 171)" fill="#707070" font-size="20" font-family="SegoeUIBlack, Segoe UI"><tspan x="0" y="0">Home</tspan></text>
    <text id="About" transform="translate(1183 171)" fill="#707070" font-size="20" font-family="SegoeUIBlack, Segoe UI"><tspan x="0" y="0">About</tspan></text>
    <text id="Arcive" transform="translate(1274 171)" fill="#707070" font-size="20" font-family="SegoeUIBlack, Segoe UI"><tspan x="0" y="0">Arcive</tspan></text>
    <g id="Rectangle_7" data-name="Rectangle 7" transform="translate(0 2217)" stroke="#707070" stroke-width="1">
      <rect width="1920" height="155" stroke="none"/>
      <rect x="0.5" y="0.5" width="1919" height="154" fill="none"/>
    </g>
    <g id="Rectangle_8" data-name="Rectangle 8" transform="translate(916.5 2237.807)" fill="#fff" stroke="#707070" stroke-width="1">
      <rect width="115" height="113" stroke="none"/>
      <rect x="0.5" y="0.5" width="114" height="112" fill="none"/>
    </g>
    <line id="Line_7" data-name="Line 7" x2="115" y2="113" transform="translate(916.5 2237.807)" fill="none" stroke="#707070" stroke-width="1"/>
    <line id="Line_8" data-name="Line 8" y1="113.615" x2="114.891" transform="translate(916.819 2237.693)" fill="none" stroke="#707070" stroke-width="1"/>
    <text id="LOGO-2" data-name="LOGO" transform="translate(956.5 2299.807)" fill="#707070" font-size="13" font-family="SegoeUIBlack, Segoe UI"><tspan x="0" y="0">LOGO</tspan></text>
    <text id="Galactic_Grid-2" data-name="Galactic Grid" transform="translate(678 2285)" fill="#fff" font-size="34" font-family="SegoeUIBlack, Segoe UI"><tspan x="0" y="0">Galactic Grid</tspan></text>
    <text id="Gabriel_Jones" data-name="Gabriel Jones" transform="translate(659 2333)" fill="#fff" font-size="20" font-family="SegoeUIBlack, Segoe UI"><tspan x="0" y="0">Gabriel Jones</tspan></text>
    <text id="WDD_131" data-name="WDD 131" transform="translate(803 2333)" fill="#fff" font-size="20" font-family="SegoeUIBlack, Segoe UI"><tspan x="0" y="0">WDD 131</tspan></text>
    <g id="Rectangle_9" data-name="Rectangle 9" transform="translate(1173 2263)" fill="#fff" stroke="#707070" stroke-width="1">
      <rect width="62" height="62" stroke="none"/>
      <rect x="0.5" y="0.5" width="61" height="61" fill="none"/>
    </g>
    <g id="Rectangle_10" data-name="Rectangle 10" transform="translate(1261 2263)" fill="#fff" stroke="#707070" stroke-width="1">
      <rect width="62" height="62" stroke="none"/>
      <rect x="0.5" y="0.5" width="61" height="61" fill="none"/>
    </g>
    <g id="Rectangle_11" data-name="Rectangle 11" transform="translate(1349 2263)" fill="#fff" stroke="#707070" stroke-width="1">
      <rect width="62" height="62" stroke="none"/>
      <rect x="0.5" y="0.5" width="61" height="61" fill="none"/>
    </g>
    <text id="social_media_links" data-name="social media links" transform="translate(1206 2257)" fill="#fff" font-size="20" font-family="SegoeUIBlack, Segoe UI"><tspan x="0" y="0">social media links</tspan></text>
    <g id="Rectangle_12" data-name="Rectangle 12" transform="translate(287 235)" fill="#fff" stroke="#707070" stroke-width="1">
      <rect width="1347" height="1958" rx="32" stroke="none"/>
      <rect x="0.5" y="0.5" width="1346" height="1957" rx="31.5" fill="none"/>
    </g>
    <g id="Rectangle_13" data-name="Rectangle 13" transform="translate(313 332)" fill="#fff" stroke="#707070" stroke-width="1">
      <rect width="1295" height="627" rx="24" stroke="none"/>
      <rect x="0.5" y="0.5" width="1294" height="626" rx="23.5" fill="none"/>
    </g>
    <text id="Title_of_Review" data-name="Title of Review" transform="translate(704 311)" fill="#707070" font-size="73" font-family="SegoeUIBlack, Segoe UI"><tspan x="0" y="0">Title of Review</tspan></text>
    <line id="Line_9" data-name="Line 9" x2="1277" y2="611" transform="translate(320.5 339.5)" fill="none" stroke="#707070" stroke-width="1"/>
    <line id="Line_10" data-name="Line 10" x1="1277" y2="611" transform="translate(320.5 339.5)" fill="none" stroke="#707070" stroke-width="1"/>
    <text id="The_Obsidian_Nightmare_is_a_fearsome_war_machine_a_testament_to_the_dark_arts_of_starship_engineering._Its_hull_a_monolithic_obsidian_carapace_is_scarred_by_battles_past_a_testament_to_its_enduring_power._Its_menacing_silhouette_dominated_by_a_colossa" data-name="The Obsidian Nightmare is a fearsome war machine, a testament to the dark arts of starship engineering. Its hull, a monolithic obsidian carapace, is scarred by battles past, a testament to its enduring power. Its menacing silhouette, dominated by a colossa" transform="translate(313 994)" fill="#707070" font-size="25" font-family="SegoeUIBlack, Segoe UI"><tspan x="0" y="27">The Obsidian Nightmare is a fearsome war </tspan><tspan x="0" y="61">machine, a testament to the dark arts of </tspan><tspan x="0" y="95">starship engineering. Its hull, a monolithic </tspan><tspan x="0" y="129">obsidian carapace, is scarred by battles past, a </tspan><tspan x="0" y="163">testament to its enduring power. Its menacing </tspan><tspan x="0" y="197">silhouette, dominated by a colossal main gun </tspan><tspan x="0" y="231">and a host of secondary weapons, strikes </tspan><tspan x="0" y="265">terror into the hearts of its enemies.</tspan><tspan x="0" y="299"></tspan><tspan x="0" y="333">Beyond its imposing exterior lies a vessel of </tspan><tspan x="0" y="367">unparalleled firepower. Its main gun, a weapon </tspan><tspan x="0" y="401">of mass destruction, can level entire starbases </tspan><tspan x="0" y="435">with a single, devastating blast. Its secondary </tspan><tspan x="0" y="469">weapons, a symphony of plasma cannons and </tspan><tspan x="0" y="503">missile launchers, provide overwhelming </tspan><tspan x="0" y="537">firepower to neutralize any threat.</tspan></text>
    <g id="Rectangle_14" data-name="Rectangle 14" transform="translate(1029 1146)" fill="#fff" stroke="#707070" stroke-width="1">
      <rect width="579" height="399" rx="21" stroke="none"/>
      <rect x="0.5" y="0.5" width="578" height="398" rx="20.5" fill="none"/>
    </g>
    <g id="Rectangle_15" data-name="Rectangle 15" transform="translate(313 1581)" fill="#fff" stroke="#707070" stroke-width="1">
      <rect width="585" height="569" rx="16" stroke="none"/>
      <rect x="0.5" y="0.5" width="584" height="568" rx="15.5" fill="none"/>
    </g>
    <text id="However_the_Obsidian_Nightmare_is_more_than_just_a_brute_force_weapon._Its_advanced_shielding_systems_and_reinforced_hull_make_it_a_formidable_defensive_fortress._Its_crew_hardened_veterans_of_countless_battles_are_skilled_in_the_art_of_warfare_capable" data-name="However, the Obsidian Nightmare is more than just a brute force weapon. Its advanced shielding systems and reinforced hull make it a formidable defensive fortress. Its crew, hardened veterans of countless battles, are skilled in the art of warfare, capable" transform="translate(1019 1573)" fill="#707070" font-size="25" font-family="SegoeUIBlack, Segoe UI"><tspan x="0" y="27">However, the Obsidian Nightmare is more </tspan><tspan x="0" y="61">than just a brute force weapon. Its advanced </tspan><tspan x="0" y="95">shielding systems and reinforced hull make it a </tspan><tspan x="0" y="129">formidable defensive fortress. Its crew, </tspan><tspan x="0" y="163">hardened veterans of countless battles, are </tspan><tspan x="0" y="197">skilled in the art of warfare, capable of </tspan><tspan x="0" y="231">outmaneuvering and outgunning any </tspan><tspan x="0" y="265">opponent.</tspan><tspan x="0" y="299"></tspan><tspan x="0" y="333">Yet, the Obsidian Nightmare is a double-edged </tspan><tspan x="0" y="367">sword. Its immense size and power </tspan><tspan x="0" y="401">consumption make it a logistical nightmare. </tspan><tspan x="0" y="435">Its crew must be ever vigilant, for a single </tspan><tspan x="0" y="469">mistake could spell disaster. Despite these </tspan><tspan x="0" y="503">drawbacks, the Obsidian Nightmare remains a </tspan><tspan x="0" y="537">symbol of fear and power, a reminder of the </tspan><tspan x="0" y="571">destructive potential of human ingenuity.</tspan></text>
    <text id="Name_of_ship_creator" data-name="Name of ship creator" transform="translate(1037 1017)" fill="#707070" font-size="25" font-family="SegoeUIBlack, Segoe UI"><tspan x="0" y="0">Name of ship creator</tspan></text>
    <text id="Game_Created_in" data-name="Game Created in" transform="translate(1037 1058)" fill="#707070" font-size="25" font-family="SegoeUIBlack, Segoe UI"><tspan x="0" y="0">Game Created in</tspan></text>
    <g id="Rectangle_16" data-name="Rectangle 16" transform="translate(1337 994)" fill="#fff" stroke="#707070" stroke-width="1">
      <rect width="271" height="70" rx="24" stroke="none"/>
      <rect x="0.5" y="0.5" width="270" height="69" rx="23.5" fill="none"/>
    </g>
    <text id="Link_to_Ship" data-name="Link to Ship" transform="translate(1400 1036)" fill="#707070" font-size="25" font-family="SegoeUIBlack, Segoe UI"><tspan x="0" y="0">Link to Ship</tspan></text>
    <path id="Path_1" data-name="Path 1" d="M2069.222,1271.667l-6.447,16.5h-14.88l11.077,11.078-7.8,16.909,18.053-11.928,15.474,11.928-5.8-16.909,13.54-11.078h-16.763Z" transform="translate(-881.395 -183.077)" stroke="#707070" stroke-width="1"/>
    <path id="Path_2" data-name="Path 2" d="M2069.222,1271.667l-6.447,16.5h-14.88l11.077,11.078-7.8,16.909,18.053-11.928,15.474,11.928-5.8-16.909,13.54-11.078h-16.763Z" transform="translate(-819.289 -183.077)" stroke="#707070" stroke-width="1"/>
    <path id="Path_3" data-name="Path 3" d="M2069.222,1271.667l-6.447,16.5h-14.88l11.077,11.078-7.8,16.909,18.053-11.928,15.474,11.928-5.8-16.909,13.54-11.078h-16.763Z" transform="translate(-757.183 -183.077)" stroke="#707070" stroke-width="1"/>
    <path id="Path_4" data-name="Path 4" d="M2069.222,1271.667l-6.447,16.5h-14.88l11.077,11.078-7.8,16.909,18.053-11.928,15.474,11.928-5.8-16.909,13.54-11.078h-16.763Z" transform="translate(-695.077 -183.077)" stroke="#707070" stroke-width="1"/>
    <path id="Path_5" data-name="Path 5" d="M2069.222,1271.667l-6.447,16.5h-14.88l11.077,11.078-7.8,16.909,18.053-11.928,15.474,11.928-5.8-16.909,13.54-11.078h-16.763Z" transform="translate(-632.971 -183.077)" stroke="#707070" stroke-width="1"/>
    <line id="Line_11" data-name="Line 11" x2="561" y2="379" transform="translate(1037.5 1154.5)" fill="none" stroke="#707070" stroke-width="1"/>
    <line id="Line_12" data-name="Line 12" x1="561" y2="379" transform="translate(1037.5 1154.5)" fill="none" stroke="#707070" stroke-width="1"/>
    <line id="Line_13" data-name="Line 13" x1="569" y2="552" transform="translate(322.5 1590.5)" fill="none" stroke="#707070" stroke-width="1"/>
    <line id="Line_14" data-name="Line 14" x2="569" y2="552" transform="translate(322.5 1590.5)" fill="none" stroke="#707070" stroke-width="1"/>
    <text id="Back_ground_stars" data-name="Back ground stars" transform="translate(1677 1405)" fill="#707070" font-size="25" font-family="SegoeUIBlack, Segoe UI"><tspan x="0" y="0">Back ground stars</tspan></text>
  </g>
</svg>
